<?xml version="1.0" encoding="UTF-8"?>
<svg version="1.1" xmlns="http://www.w3.org/2000/svg" width="180" height="180">
<path d="M0 0 C0.67340424 -0.0065712 1.34680847 -0.0131424 2.0406189 -0.01991272 C4.27349965 -0.03965335 6.50631305 -0.05131122 8.73925781 -0.0612793 C9.50221413 -0.06535482 10.26517044 -0.06943035 11.05124664 -0.07362938 C15.09112783 -0.09449549 19.13097501 -0.10879364 23.17089844 -0.11816406 C27.33838016 -0.12921705 31.50532623 -0.16360195 35.67261887 -0.20333576 C38.88117445 -0.22951971 42.0896029 -0.23785754 45.29825592 -0.24144554 C46.83401346 -0.24630861 48.36976542 -0.25791474 49.9054184 -0.27648354 C52.0597687 -0.30090974 54.21274026 -0.29990438 56.3671875 -0.29296875 C57.5913739 -0.29883499 58.8155603 -0.30470123 60.07684326 -0.31074524 C64.09669003 0.27182672 66.23100032 1.75231318 69.44238281 4.17700195 C77.70732089 8.17582962 86.75174702 10.54033596 95.51660156 13.17700195 C108.3333704 17.15408416 108.3333704 17.15408416 112.31738281 22.86450195 C115.70589625 32.84179153 111.5715056 42.32919739 108.50488281 51.86450195 C107.9720447 53.5540713 107.44042318 55.24402471 106.90991211 56.93432617 C105.74231071 60.64658191 104.56681203 64.35621668 103.38574219 68.06420898 C101.29989998 74.61626547 99.23742431 81.17558509 97.17675781 87.7355957 C96.4417782 90.0739892 95.70675194 92.41236804 94.97167969 94.75073242 C94.60598877 95.91409119 94.24029785 97.07744995 93.86352539 98.27606201 C92.04246936 104.0677701 90.21963333 109.85891617 88.39550781 115.6496582 C88.0502002 116.74600586 87.70489258 117.84235352 87.34912109 118.97192383 C85.61464526 124.47431251 83.8722435 129.97397858 82.11225891 135.46826172 C81.45581254 137.5197936 80.80314996 139.57248255 80.15209961 141.62573242 C79.42700494 143.90980376 78.69499032 146.19170007 77.95336914 148.47045898 C75.97177548 154.74661529 74.7482455 160.87213741 73.92553711 167.4050293 C73.03398265 172.52009215 70.72347491 175.17200031 66.73999023 178.29699707 C62.95144705 180.45689022 60.76097733 180.68321103 56.43066406 180.69458008 C55.75667572 180.70158936 55.08268738 180.70859863 54.38827515 180.71582031 C52.17671604 180.73331966 49.96645324 180.72180794 47.75488281 180.70825195 C46.20841223 180.71094923 44.66194331 180.71483361 43.11547852 180.71984863 C39.88085722 180.72573271 36.646679 180.7172165 33.41210938 180.69848633 C29.27601348 180.6756968 25.14095592 180.68882583 21.00489807 180.71277618 C17.81343837 180.72726408 14.62222287 180.72261462 11.43075562 180.71226501 C9.90619787 180.70960596 8.3816176 180.7128385 6.85708618 180.72218323 C4.7221648 180.73239908 2.58890023 180.71678135 0.45410156 180.69458008 C-0.75802002 180.69139771 -1.9701416 180.68821533 -3.21899414 180.68493652 C-7.96216788 179.9633151 -11.06542626 177.77577794 -14.30761719 174.30200195 C-17.07604143 169.59568074 -17.80828272 165.13802717 -17.8183136 159.73880005 C-17.82539841 158.46316193 -17.83248322 157.1875238 -17.83978271 155.87322998 C-17.83748921 154.47204554 -17.83497956 153.07086144 -17.83227539 151.66967773 C-17.83662578 150.18425236 -17.84181002 148.69882924 -17.84776306 147.21340942 C-17.86112985 143.18853716 -17.86173427 139.16375894 -17.85919976 135.13886881 C-17.85812837 131.77417972 -17.86301777 128.40950952 -17.86780518 125.04482448 C-17.87889257 117.10400592 -17.87934225 109.16323466 -17.87329102 101.22241211 C-17.86725249 93.04150675 -17.87956088 84.86077344 -17.90086108 76.67989743 C-17.91849844 69.64615286 -17.92447504 62.61246294 -17.92122334 55.57869709 C-17.91941358 51.38216082 -17.92201584 47.18574727 -17.93593788 42.98923111 C-17.94854623 39.04110447 -17.94654388 35.09324523 -17.93352699 31.14512253 C-17.93116811 29.70040037 -17.93387116 28.25565922 -17.94215012 26.81095886 C-18.03218644 9.87107407 -18.03218644 9.87107407 -13.1057024 4.63336372 C-8.54304942 0.6846701 -5.91920653 0.04772294 0 0 Z " fill="#050201" transform="translate(41.5576171875,-0.177001953125)"/>
<path d="M0 0 C25.74 0 51.48 0 78 0 C78.103125 12.58125 78.20625 25.1625 78.3125 38.125 C78.35802002 42.09031738 78.40354004 46.05563477 78.45043945 50.14111328 C78.47302246 55.00170898 78.47302246 55.00170898 78.47721863 57.2807312 C78.48487195 58.86470572 78.50240693 60.44865198 78.52787781 62.03244019 C78.56462895 64.43896688 78.5695256 66.84372186 78.56762695 69.25048828 C78.59461277 70.30015117 78.59461277 70.30015117 78.62214375 71.37101936 C78.58248937 75.14098813 77.95409171 77.51498269 75.65202332 80.42184448 C71.83392952 84.13359148 69.09871519 84.13262148 63.97143555 84.19287109 C62.1088636 84.21696548 62.1088636 84.21696548 60.20866394 84.24154663 C58.85135586 84.25303404 57.4940401 84.26364259 56.13671875 84.2734375 C55.45190744 84.27876118 54.76709614 84.28408485 54.06153297 84.28956985 C50.43662258 84.31627041 46.81174625 84.33565495 43.18676758 84.35009766 C40.19231604 84.36343452 37.19854636 84.39128479 34.2043457 84.43212891 C30.58277003 84.48152499 26.96181246 84.50622661 23.33991432 84.51332474 C21.96321676 84.52002392 20.58653228 84.53521162 19.21002769 84.55921555 C7.10179977 84.75831458 7.10179977 84.75831458 3.17114258 81.65478516 C-0.26211725 77.45673417 -0.14009308 73.86038688 -0.11352539 68.68286133 C-0.11364593 67.92917361 -0.11376646 67.1754859 -0.11389065 66.39895916 C-0.11314442 63.95995314 -0.1055294 61.52102359 -0.09765625 59.08203125 C-0.09618593 57.5759688 -0.09516577 56.06990584 -0.09460449 54.56384277 C-0.08936203 48.98005406 -0.07540083 43.39627628 -0.0625 37.8125 C-0.041875 25.334375 -0.02125 12.85625 0 0 Z " fill="#D93D44" transform="translate(31,90)"/>
<path d="M0 0 C0.98150276 -0.01818031 0.98150276 -0.01818031 1.98283386 -0.03672791 C4.13541146 -0.06810981 6.28503372 -0.05565116 8.43774414 -0.03979492 C9.94080889 -0.04638153 11.44386729 -0.0546007 12.94691467 -0.06437683 C16.09355409 -0.07771693 19.23917335 -0.06891194 22.38574219 -0.04492188 C26.40935141 -0.01635247 30.43002912 -0.04637915 34.45337582 -0.0935564 C37.55660582 -0.12281436 40.65914062 -0.1189989 43.76245308 -0.10553551 C45.24516651 -0.10338836 46.72793597 -0.11183297 48.21052361 -0.13126564 C61.19245964 -0.27262971 61.19245964 -0.27262971 65.20410156 3.3347168 C69.04890744 9.30655305 68.01503643 17.17641562 67.87133789 24.00708008 C67.86250409 25.4097755 67.85639047 26.81249075 67.85302734 28.21520996 C67.82170953 33.38702252 67.73794112 38.55841025 67.66040039 43.72973633 C67.53665039 55.30036133 67.41290039 66.87098633 67.28540039 78.79223633 C41.21540039 78.79223633 15.14540039 78.79223633 -11.71459961 78.79223633 C-11.81772461 67.03598633 -11.92084961 55.27973633 -12.02709961 43.16723633 C-12.07261963 39.4629541 -12.11813965 35.75867187 -12.16503906 31.94213867 C-12.18762207 27.39892578 -12.18762207 27.39892578 -12.19181824 25.26821899 C-12.19946789 23.78840609 -12.21699529 22.30862327 -12.24247742 20.82901001 C-12.27925962 18.57971557 -12.2841243 16.33231527 -12.28222656 14.08276367 C-12.29332962 12.81701508 -12.30443268 11.55126648 -12.31587219 10.24716187 C-11.07773689 3.13280905 -7.31800223 0.04835843 0 0 Z " fill="#DB763D" transform="translate(42.714599609375,5.207763671875)"/>
<path d="M0 0 C14.58433735 3.64608434 14.58433735 3.64608434 21.5 5.875 C22.27085937 6.10574219 23.04171875 6.33648438 23.8359375 6.57421875 C28.51157438 8.0869248 31.64540293 9.40853571 34 14 C33.60150483 20.99226998 31.09594641 27.596162 29 34.23046875 C28.59975822 35.51109905 28.20002712 36.79188906 27.80078125 38.0728302 C26.7536891 41.42805989 25.70037708 44.78130273 24.64550781 48.13409424 C23.15804566 52.86581599 21.67906615 57.6001973 20.19921875 62.33430481 C19.4123874 64.85136656 18.62290037 67.36754501 17.83203125 69.88334656 C17.47496094 71.02165421 17.11789063 72.15996185 16.75 73.33276367 C16.43546875 74.33313156 16.1209375 75.33349945 15.796875 76.36418152 C15.13103879 78.56656381 14.53117374 80.76203639 14 83 C9.16371695 82.00956295 4.52381127 81.04301154 0 79 C0 76.03 0 73.06 0 70 C1.093125 69.566875 2.18625 69.13375 3.3125 68.6875 C6.08796498 67.49320901 8.14829237 66.46894351 10 64 C11.45080006 59.64759981 11.27920807 55.75502216 10.5625 51.25 C8.53125049 47.8456752 8.53125049 47.8456752 0 46 C0 30.82 0 15.64 0 0 Z " fill="#D73C44" transform="translate(115,14)"/>
<path d="M0 0 C3.51732742 1.28517733 5.4770624 2.37247488 7.875 5.25 C9.31158806 8.76165971 9.40359922 11.23307391 9 15 C7.48007896 18.18459646 5.71704041 20.73579966 3 23 C-0.65288193 24.21762731 -3.15754136 24.39075851 -7 24 C-10.64115435 21.9311623 -13.79935433 19.08219528 -15 15 C-15.53330705 11.46684082 -15.70722933 9.09555464 -13.7265625 6.02734375 C-9.35934009 0.83993566 -6.99939718 -0.46662648 0 0 Z " fill="#080404" transform="translate(55,144)"/>
<path d="M0 0 C3.51732742 1.28517733 5.4770624 2.37247488 7.875 5.25 C9.31158806 8.76165971 9.40359922 11.23307391 9 15 C7.46824998 18.209381 5.70913688 20.70326101 3 23 C-1.09494954 24.21161428 -4.80979585 24.44963268 -8.8125 22.9375 C-12.62787633 19.55816668 -14.7051974 16.62141432 -15.625 11.5625 C-14.78880404 6.79618302 -12.51384615 4.22254284 -9 1 C-5.92805092 -0.53597454 -3.39755707 -0.2265038 0 0 Z " fill="#080303" transform="translate(73,120)"/>
<path d="M0 0 C3.51732742 1.28517733 5.4770624 2.37247488 7.875 5.25 C9.31158806 8.76165971 9.40359922 11.23307391 9 15 C7.46824998 18.209381 5.70913688 20.70326101 3 23 C-1.09494954 24.21161428 -4.80979585 24.44963268 -8.8125 22.9375 C-12.62787633 19.55816668 -14.7051974 16.62141432 -15.625 11.5625 C-14.78880404 6.79618302 -12.51384615 4.22254284 -9 1 C-5.92805092 -0.53597454 -3.39755707 -0.2265038 0 0 Z " fill="#080404" transform="translate(55,96)"/>
<path d="M0 0 C3.51732742 1.28517733 5.4770624 2.37247488 7.875 5.25 C9.31158806 8.76165971 9.40359922 11.23307391 9 15 C7.48007896 18.18459646 5.71704041 20.73579966 3 23 C-0.65288193 24.21762731 -3.15754136 24.39075851 -7 24 C-10.77139251 21.85716335 -13.39527113 19.03431837 -15 15 C-15.41725045 10.97389919 -15.01725055 7.4069578 -12.61328125 4.08203125 C-8.62104657 0.3051081 -5.58682841 -0.91420829 0 0 Z " fill="#080304" transform="translate(91,144)"/>
<path d="M0 0 C3.51732742 1.28517733 5.4770624 2.37247488 7.875 5.25 C9.31158806 8.76165971 9.40359922 11.23307391 9 15 C7.46824998 18.209381 5.70913688 20.70326101 3 23 C-1.09494954 24.21161428 -4.80979585 24.44963268 -8.8125 22.9375 C-12.1467218 19.98433212 -14.70147678 17.41414426 -15.26953125 12.8203125 C-15.11044634 8.32048225 -14.15948617 5.57370237 -10.875 2.4375 C-7.20730493 -0.26264361 -4.56620962 -0.74719794 0 0 Z " fill="#080303" transform="translate(91,96)"/>
<path d="M0 0 C3.51732742 1.28517733 5.4770624 2.37247488 7.875 5.25 C9.31158806 8.76165971 9.40359922 11.23307391 9 15 C7.46824998 18.209381 5.70913688 20.70326101 3 23 C-1.09494954 24.21161428 -4.80979585 24.44963268 -8.8125 22.9375 C-12.41676074 19.74515477 -14.69800771 16.81195372 -15.5 12 C-14.72643096 7.35858575 -12.40610127 4.45458752 -9.1875 1.125 C-5.95746393 -0.53616141 -3.58570502 -0.370935 0 0 Z " fill="#070303" transform="translate(130,27)"/>
<path d="M0 0 C3.12068856 1.79273598 4.54965052 3.24259405 6.375 6.3125 C7.21219504 9.91243865 6.89539601 12.41841597 6 16 C4.17660948 18.70567626 2.92542564 20.53728718 0 22 C-4.28819956 22.43808718 -7.94422448 22.44926618 -11.9375 20.75 C-14.66402402 18.43658568 -15.77148868 16.34460874 -16.37109375 12.81640625 C-16.50161538 8.38634851 -16.47570102 6.6008855 -13.625 3 C-9.14019206 -0.41699653 -5.53858943 -0.6899281 0 0 Z " fill="#090604" transform="translate(75,34)"/>
<path d="M0 0 C9 2 9 2 12 3 C9.80673246 11.29444342 7.3564213 19.49450933 4.8125 27.6875 C4.44447266 28.87794922 4.07644531 30.06839844 3.69726562 31.29492188 C2.79979847 34.19712086 1.90068232 37.09879755 1 40 C0.67 40 0.34 40 0 40 C0 26.8 0 13.6 0 0 Z " fill="#D8753D" transform="translate(115,99)"/>
<path d="M0 0 C3.0625 0.3125 3.0625 0.3125 4.9375 1.4375 C6.59104531 4.19340884 6.45615568 6.16325452 6.0625 9.3125 C5 11.25 5 11.25 3.0625 12.3125 C-0.5 12.1875 -0.5 12.1875 -3.9375 11.3125 C-5.9375 8.3125 -5.9375 8.3125 -5.6875 5.25 C-4.69210355 1.35136391 -4.04786381 0.43062381 0 0 Z " fill="#F0F0F0" transform="translate(69.9375,125.6875)"/>
<path d="M0 0 C6.46153846 0.46153846 6.46153846 0.46153846 9 3 C9.32954432 6.09771665 9.45334601 8.17331023 7.9375 10.9375 C4.78433176 12.66665678 2.37491745 11.8590699 -1 11 C-3 8 -3 8 -2.75 4.9375 C-2 2 -2 2 0 0 Z " fill="#F1F1F1" transform="translate(85,150)"/>
<path d="M0 0 C3.0625 0.3125 3.0625 0.3125 4.9375 1.4375 C6.60913625 4.22356042 6.52626624 6.13238862 6.0625 9.3125 C4.4375 11.25 4.4375 11.25 2.0625 12.3125 C-1.0625 12.1875 -1.0625 12.1875 -3.9375 11.3125 C-5.9375 8.3125 -5.9375 8.3125 -5.6875 5.25 C-4.69210355 1.35136391 -4.04786381 0.43062381 0 0 Z " fill="#F1F1F1" transform="translate(87.9375,101.6875)"/>
<path d="M0 0 C6.46153846 0.46153846 6.46153846 0.46153846 9 3 C8.53846154 9.46153846 8.53846154 9.46153846 6 12 C2.5 11.8125 2.5 11.8125 -1 11 C-3 8 -3 8 -2.75 4.9375 C-2 2 -2 2 0 0 Z " fill="#F2F2F2" transform="translate(49,150)"/>
<path d="M0 0 C3.0625 0.3125 3.0625 0.3125 5 1.375 C6.72915678 4.52816824 5.9215699 6.93758255 5.0625 10.3125 C2.0625 12.3125 2.0625 12.3125 -1 12.125 C-3.9375 11.3125 -3.9375 11.3125 -5.9375 8.3125 C-5.54567126 3.51259791 -5.29764475 0.56357923 0 0 Z " fill="#F2F2F2" transform="translate(51.9375,101.6875)"/>
<path d="M0 0 C6.46153846 0.46153846 6.46153846 0.46153846 9 3 C9.375 5.9375 9.375 5.9375 9 9 C7.375 10.9375 7.375 10.9375 5 12 C1.875 11.875 1.875 11.875 -1 11 C-3 8 -3 8 -2.75 4.9375 C-2 2 -2 2 0 0 Z " fill="#F2F2F2" transform="translate(67,39)"/>
<path d="M0 0 C6.46153846 0.46153846 6.46153846 0.46153846 9 3 C9.375 5.9375 9.375 5.9375 9 9 C7.375 10.9375 7.375 10.9375 5 12 C1.875 11.875 1.875 11.875 -1 11 C-3 8 -3 8 -2.75 4.9375 C-2 2 -2 2 0 0 Z " fill="#F2F2F2" transform="translate(124,33)"/>
<path d="M0 0 C4 1 4 1 6 3 C6.55408971 8.20844327 6.55408971 8.20844327 4.6875 10.875 C3 12 3 12 0 12 C0 8.04 0 4.08 0 0 Z " fill="#EAEAEA" transform="translate(115,66)"/>
</svg>
